<?xml version="1.0" encoding="UTF-8" standalone="no"?>
<!-- Creator: CorelDRAW X8 -->

<svg
   xmlns:dc="http://purl.org/dc/elements/1.1/"
   xmlns:cc="http://creativecommons.org/ns#"
   xmlns:rdf="http://www.w3.org/1999/02/22-rdf-syntax-ns#"
   xmlns:svg="http://www.w3.org/2000/svg"
   xmlns="http://www.w3.org/2000/svg"
   xmlns:sodipodi="http://sodipodi.sourceforge.net/DTD/sodipodi-0.dtd"
   xmlns:inkscape="http://www.inkscape.org/namespaces/inkscape"
   xml:space="preserve"
   width="189px"
   height="15px"
   version="1.1"
   style="shape-rendering:geometricPrecision; text-rendering:geometricPrecision; image-rendering:optimizeQuality; fill-rule:evenodd; clip-rule:evenodd"
   viewBox="0 0 106454 8427"
   id="svg32"
   sodipodi:docname="logo.svg"
   inkscape:version="0.92.1 r15371"><metadata
     id="metadata36"><rdf:RDF><cc:Work
         rdf:about=""><dc:format>image/svg+xml</dc:format><dc:type
           rdf:resource="http://purl.org/dc/dcmitype/StillImage" /><dc:title></dc:title></cc:Work></rdf:RDF></metadata><sodipodi:namedview
     pagecolor="#ffffff"
     bordercolor="#666666"
     borderopacity="1"
     objecttolerance="10"
     gridtolerance="10"
     guidetolerance="10"
     inkscape:pageopacity="0"
     inkscape:pageshadow="2"
     inkscape:window-width="1762"
     inkscape:window-height="1171"
     id="namedview34"
     showgrid="false"
     inkscape:zoom="2.2328042"
     inkscape:cx="94.5"
     inkscape:cy="7.5"
     inkscape:window-x="0"
     inkscape:window-y="0"
     inkscape:window-maximized="0"
     inkscape:current-layer="svg32" /><defs
     id="defs4"><style
       type="text/css"
       id="style2"><![CDATA[
    .fil0 {fill:#6FB048}
    .fil1 {fill:#7F7F7F}
    .fil2 {fill:#9B9B9B}
    .fil3 {fill:#9B9B9B;fill-rule:nonzero}
   ]]></style></defs><g
     id="Layer_x0020_1"><metadata
       id="CorelCorpID_0Corel-Layer" /><g
       id="g9"><path
         class="fil0"
         d="M6781 4239l-962 -2069 -1225 0 1575 3388 612 -1319 0 0zm0 0l0 0 0 0z"
         id="path7" /></g><g
       id="g13"><path
         class="fil1"
         d="M3718 8194l1226 0 -3719 -8002 -1225 0 3718 8003 0 -1zm0 0l0 0 0 0z"
         id="path11" /></g><g
       id="g17"><path
         class="fil0"
         d="M5556 8194l1225 0 -3718 -8002 -1225 0 3718 8003 0 -1zm0 0l0 0 0 0z"
         id="path15" /></g><g
       id="g21"><path
         class="fil0"
         d="M6781 8194l-1225 0 3718 -8002 1226 0 -3719 8003 0 -1zm0 0l0 0 0 0z"
         id="path19" /></g><g
       id="g25"><path
         class="fil2"
         d="M5556 4239l1881 -4047 1225 0 -2493 5366 -613 -1318 0 -1zm-1838 3955l1226 0 -3719 -8002 -1225 0 3718 8003 0 -1zm0 0l0 0 0 0z"
         id="path23" /></g><path
       class="fil0"
       d="M14212 0c-2411,0 -3853,1916 -3853,4214 0,2298 1442,4213 3853,4213 2411,0 3853,-1915 3853,-4213 0,-2298 -1442,-4214 -3853,-4214zm0 1149c1724,0 2445,1521 2445,3065 0,1543 -721,3064 -2445,3064 -1724,0 -2444,-1521 -2444,-3064 0,-1544 720,-3065 2444,-3065zm6546 192l2286 0c732,0 1397,203 1397,1228 0,845 -485,1284 -1374,1284l-2310 0 0 -2512 1 0zm-1409 6895l1409 0 0 -3313 2072 0c1296,0 1600,653 1600,2130 0,394 0,833 214,1183l1510 0c-305,-327 -439,-1183 -439,-2118 0,-1273 -710,-1634 -1195,-1701l0 -23c259,-90 1329,-485 1329,-2028 0,-1363 -901,-2174 -2658,-2174l-3842 0 0 8044zm7931 0l1408 0 0 -2704 1149 -1138 2637 3842 1757 0 -3436 -4833 3211 -3211 -1735 0 -3583 3661 0 -3661 -1408 0 0 8044zm7718 0l1407 0 0 -3571 3639 0 0 -1150 -3638 0 0 -2106 4145 0 0 -1217 -5553 0 0 8044zm6680 0l5498 0 0 -1217 -4090 0 0 -6827 -1408 0 0 8044 0 0zm9892 -8236c-2411,0 -3853,1916 -3853,4214 0,2298 1442,4213 3853,4213 2410,0 3853,-1915 3853,-4213 0,-2298 -1442,-4214 -3853,-4214l0 0zm0 1149c1723,0 2444,1521 2444,3065 0,1543 -721,3064 -2444,3064 -1724,0 -2445,-1521 -2445,-3064 0,-1544 721,-3065 2445,-3065zm6466 7087l1453 0 1646 -6151 22 0 1611 6151 1431 0 2219 -8044 -1431 0 -1498 6151 -23 0 -1577 -6151 -1442 0 -1623 6151 -22 0 -1453 -6151 -1431 0 2118 8044 0 0z"
       id="path27" /><path
       class="fil3"
       d="M73204 6202c0,683 -251,1224 -754,1624 -503,400 -1171,601 -2003,601 -1003,0 -1770,-111 -2306,-331l0 -572c591,251 1343,375 2260,375 673,0 1205,-155 1601,-463 394,-308 591,-712 591,-1213 0,-310 -65,-567 -197,-769 -130,-205 -344,-391 -639,-559 -294,-168 -729,-350 -1301,-544 -836,-289 -1414,-598 -1733,-933 -320,-335 -481,-781 -481,-1338 0,-612 241,-1113 722,-1500 480,-386 1096,-580 1852,-580 769,0 1492,146 2170,439l-209 493c-679,-285 -1330,-426 -1950,-426 -606,0 -1088,139 -1446,421 -360,279 -538,660 -538,1142 0,302 54,551 165,746 111,193 290,369 541,524 251,155 679,341 1290,557 639,222 1119,436 1441,643 321,207 554,442 702,706 149,264 222,582 222,957zm6215 2110l-4482 0 0 -8197 4482 0 0 528 -3910 0 0 3100 3689 0 0 528 -3689 0 0 3513 3910 0 0 528zm2424 -3570l0 3570 -572 0 0 -8197 1949 0c1016,0 1768,188 2254,565 484,375 727,939 727,1695 0,549 -143,1014 -434,1391 -289,377 -729,649 -1318,813l2223 3733 -683 0 -2112 -3570 -2034 0zm0 -494l1563 0c691,0 1226,-155 1607,-465 381,-308 572,-765 572,-1368 0,-627 -187,-1083 -560,-1368 -373,-285 -982,-427 -1826,-427l-1356 0 0 3628zm11092 -4133l621 0 -3065 8197 -505 0 -3054 -8197 611 0 2062 5580c314,840 524,1471 634,1894 74,-281 221,-716 441,-1307l2255 -6167zm6266 8197l-4481 0 0 -8197 4481 0 0 528 -3909 0 0 3100 3689 0 0 528 -3689 0 0 3513 3909 0 0 528zm2424 -3570l0 3570 -572 0 0 -8197 1950 0c1016,0 1767,188 2254,565 484,375 727,939 727,1695 0,549 -144,1014 -435,1391 -289,377 -729,649 -1318,813l2223 3733 -683 0 -2112 -3570 -2034 0zm0 -494l1563 0c691,0 1227,-155 1607,-465 381,-308 573,-765 573,-1368 0,-627 -188,-1083 -561,-1368 -373,-285 -982,-427 -1826,-427l-1356 0 0 3628z"
       id="path29" /></g></svg>