<svg width="50" height="50" viewBox="0 0 50 50" fill="none" xmlns="http://www.w3.org/2000/svg">
<rect width="50" height="50" rx="2" fill="#F4F4F4"/>
<path d="M1.92187 17.3834C2.31062 19.8113 4.26322 22.9013 7.47043 23.9879C8.78689 24.4294 10.227 24.4379 11.5435 23.9795C14.6977 22.8844 16.7121 19.8028 17.1097 17.3834C17.5338 17.3495 18.0904 16.7807 18.6912 14.7348C19.5129 11.9419 18.6382 11.526 17.8961 11.5939C18.0374 11.2119 18.1435 10.8214 18.2141 10.4478C19.4688 3.20665 15.7579 2.96046 15.7579 2.96046C15.7579 2.96046 15.1395 1.82293 13.5226 0.965528C12.4359 0.345824 10.925 -0.129565 8.93709 0.0317279C8.29211 0.0571952 7.68248 0.184532 7.10818 0.362802C6.37486 0.600497 5.70337 0.94855 5.09374 1.35603C4.35158 1.80595 3.64475 2.36623 3.02628 3.00291C2.04556 3.97067 1.17087 5.21856 0.790953 6.77207C0.472883 7.93507 0.543566 9.14901 0.808625 10.4563C0.879307 10.8383 0.98533 11.2203 1.12669 11.6024C0.38453 11.5344 -0.490164 11.9504 0.331518 14.7433C0.941153 16.7807 1.49778 17.3495 1.92187 17.3834Z" transform="translate(15.4814 4)" fill="#D5D5D5"/>
<path d="M32.5709 3.5824C28.0561 2.47882 24.3895 0 24.3895 0L21.5268 8.70132L20.9879 10.3397L20.979 10.3142L20.5108 11.7065L18.9999 7.58925C22.7107 2.61464 18.2489 2.66557 18.0015 2.67406C17.7542 2.66557 13.2923 2.61464 17.0032 7.58925L15.4923 11.7065L15.024 10.3142L15.0152 10.3397L14.4763 8.70132L11.6048 0C11.6048 0 7.93814 2.47882 3.42331 3.5824C0.0570659 4.40584 -0.101969 8.14104 0.03056 9.98317C0.03056 9.98317 0.224937 12.4875 0.419313 13.591C0.419313 13.591 6.99277 17.6913 18.0015 17.6998C29.0103 17.6998 35.5838 13.591 35.5838 13.591C35.7781 12.4875 35.9725 9.98317 35.9725 9.98317C36.0962 8.14104 35.9372 4.40584 32.5709 3.5824Z" transform="translate(7 27.3003)" fill="#D5D5D5"/>
</svg>
