<?xml version="1.0" standalone="no"?>
<!DOCTYPE svg PUBLIC "-//W3C//DTD SVG 20010904//EN"
 "http://www.w3.org/TR/2001/REC-SVG-20010904/DTD/svg10.dtd">
<svg version="1.0" xmlns="http://www.w3.org/2000/svg"
 width="301.000000pt" height="301.000000pt" viewBox="0 0 301.000000 301.000000"
 preserveAspectRatio="xMidYMid meet">
<metadata>
Created by potrace 1.11, written by Peter Selinger 2001-2013
</metadata>
<g transform="translate(0.000000,301.000000) scale(0.100000,-0.100000)"
fill="#000000" stroke="none">
<path d="M755 2606 l-750 -402 -3 -696 -2 -696 751 -402 751 -403 39 19 c21
10 357 190 748 399 l710 380 1 701 0 701 -692 371 c-381 204 -718 385 -748
401 l-55 30 -750 -403z m1107 -532 c301 -161 346 -188 331 -199 -10 -6 -168
-92 -351 -189 -224 -121 -338 -176 -350 -172 -43 17 -692 369 -688 374 13 12
682 370 695 371 8 1 172 -83 363 -185z m-742 -427 l345 -185 3 -347 c2 -328 1
-345 -15 -337 -10 5 -172 91 -360 192 l-343 182 0 345 c0 272 3 344 13 340 6
-3 167 -88 357 -190z m1140 -151 l0 -343 -358 -192 c-197 -105 -362 -191 -365
-191 -4 0 -7 153 -7 340 l0 340 23 14 c34 22 691 375 700 375 4 1 7 -154 7
-343z"/>
</g>
</svg>
